<svg width="64" height="64" viewBox="0 0 64 64" fill="none" xmlns="http://www.w3.org/2000/svg">
<path d="M23.9999 50.6662C10.6666 54.6662 10.6666 43.9995 5.33325 42.6662M42.6666 58.6662V48.3462C42.7666 47.0746 42.5948 45.7963 42.1626 44.5963C41.7304 43.3963 41.0477 42.302 40.1599 41.3862C48.5333 40.4528 57.3333 37.2795 57.3333 22.7195C57.3326 18.9964 55.9004 15.416 53.3333 12.7195C54.5489 9.46219 54.4629 5.86177 53.0933 2.66617C53.0933 2.66617 49.9466 1.73284 42.6666 6.61284C36.5546 4.95637 30.1119 4.95637 23.9999 6.61284C16.7199 1.73284 13.5733 2.66617 13.5733 2.66617C12.2036 5.86177 12.1176 9.46219 13.3333 12.7195C10.7469 15.436 9.31331 19.0487 9.33325 22.7995C9.33325 37.2528 18.1333 40.4262 26.5066 41.4662C25.6292 42.3728 24.9526 43.4539 24.5207 44.6393C24.0889 45.8247 23.9114 47.0877 23.9999 48.3462V58.6662" stroke="white" stroke-width="2" stroke-linecap="round" stroke-linejoin="round"/>
</svg>
